HIERARCHY
ROOT Hips
{
 OFFSET 0.000000 0.000000 0.000000
 CHANNELS 6 Xposition Yposition Zposition Yrotation Xrotation Zrotation
 JOINT Chest
 {
  OFFSET 0.000000 9.585900 0.002600
  CHANNELS 3 Yrotation Xrotation Zrotation
  JOINT Chest2
  {
   OFFSET 0.000000 9.601200 -0.005300
   CHANNELS 3 Yrotation Xrotation Zrotation
   JOINT Chest3
   {
    OFFSET 0.000000 9.561800 0.000000
    CHANNELS 3 Yrotation Xrotation Zrotation
    JOINT Chest4
    {
     OFFSET 0.000000 9.552100 0.000000
     CHANNELS 3 Yrotation Xrotation Zrotation
     JOINT Neck
     {
      OFFSET 0.000000 14.453000 0.000000
      CHANNELS 3 Yrotation Xrotation Zrotation
      JOINT Head
      {
       OFFSET 0.000000 8.936500 -0.011300
       CHANNELS 3 Yrotation Xrotation Zrotation
       End Site
       {
        OFFSET 0.000000 17.073600 -0.006000
       }
      }
     }
     JOINT RightCollar
     {
      OFFSET -2.921100 9.558500 0.000000
      CHANNELS 3 Yrotation Xrotation Zrotation
      JOINT RightShoulder
      {
       OFFSET -13.519700 0.000000 0.000000
       CHANNELS 3 Yrotation Xrotation Zrotation
       JOINT RightElbow
       {
        OFFSET 0.000000 -29.696600 0.000000
        CHANNELS 3 Yrotation Xrotation Zrotation
        JOINT RightWrist
        {
         OFFSET 0.000000 -24.004700 0.000000
         CHANNELS 3 Yrotation Xrotation Zrotation
         End Site
         {
          OFFSET 0.000000 -17.728500 0.000000
         }
        }
       }
      }
     }
     JOINT LeftCollar
     {
      OFFSET 2.921100 9.558500 0.000000
      CHANNELS 3 Yrotation Xrotation Zrotation
      JOINT LeftShoulder
      {
       OFFSET 13.519700 0.000000 0.000000
       CHANNELS 3 Yrotation Xrotation Zrotation
       JOINT LeftElbow
       {
        OFFSET 0.000000 -29.696600 0.000000
        CHANNELS 3 Yrotation Xrotation Zrotation
        JOINT LeftWrist
        {
         OFFSET 0.000000 -24.004700 0.000000
         CHANNELS 3 Yrotation Xrotation Zrotation
         End Site
         {
          OFFSET 0.000000 -17.728500 0.000000
         }
        }
       }
      }
     }
    }
   }
  }
 }
 JOINT RightHip
 {
  OFFSET -7.771700 -0.012900 -0.001300
  CHANNELS 3 Yrotation Xrotation Zrotation
  JOINT RightKnee
  {
   OFFSET 0.000000 -40.869800 0.001200
   CHANNELS 3 Yrotation Xrotation Zrotation
   JOINT RightAnkle
   {
    OFFSET 0.000000 -39.717900 0.002100
    CHANNELS 3 Yrotation Xrotation Zrotation
    JOINT RightToe
    {
     OFFSET 0.000000 -4.965400 11.033500
     CHANNELS 3 Yrotation Xrotation Zrotation
     End Site
     {
      OFFSET 0.000000 -1.423100 5.872300
     }
    }
   }
  }
 }
 JOINT LeftHip
 {
  OFFSET 7.771700 -0.012900 -0.001300
  CHANNELS 3 Yrotation Xrotation Zrotation
  JOINT LeftKnee
  {
   OFFSET 0.000000 -40.869800 0.001200
   CHANNELS 3 Yrotation Xrotation Zrotation
   JOINT LeftAnkle
   {
    OFFSET 0.000000 -39.717900 0.002100
    CHANNELS 3 Yrotation Xrotation Zrotation
    JOINT LeftToe
    {
     OFFSET 0.000000 -4.965400 11.033500
     CHANNELS 3 Yrotation Xrotation Zrotation
     End Site
     {
      OFFSET 0.000000 -1.423100 5.872300
     }
    }
   }
  }
 }
}
MOTION
Frames: 9
Frame Time: 0.008333
0.000000 85.388000 0.000000 0.000000 -5.767877 0.000000 0.000000 11.653817 0.000000 0.000000 -5.885947 0.000000 0.000000 -0.000000 0.000000 0.000000 -0.000000 0.000000 0.000000 12.528835 0.000000 0.000000 0.711642 0.000000 0.000000 -0.000000 0.000000 0.000000 0.000000 -90.000000 0.000000 -2.309062 0.000000 0.000000 2.309062 0.000000 0.000000 -0.000000 0.000000 0.000000 -0.000000 90.000000 0.000000 -2.309062 0.000000 0.000000 2.309062 0.000000 0.000000 8.520406 0.000000 0.000000 1.905762 0.000000 -0.000000 -4.658285 0.000000 0.000000 -0.000000 0.000000 0.000000 8.520406 0.000000 0.000000 1.905762 0.000000 -0.000000 -4.658285 0.000000 0.000000 -0.000000 0.000000
-10.309585 55.911897 22.812422 -173.595101 -24.783069 -9.706993 -1.712031 11.433393 4.755601 -1.006265 6.531930 2.324420 -1.226164 8.175486 2.892379 -0.998097 6.527465 2.322992 3.569098 25.024020 -0.882342 4.087179 1.462804 -1.762688 0.720972 1.528458 -2.389761 -13.034488 -7.362571 3.717253 55.952912 -83.567738 -38.658892 12.852640 -12.372923 -16.644224 -9.561366 1.925239 -3.743729 5.678002 0.653879 -0.926566 -110.949211 -73.652749 116.050869 17.111189 -24.477095 2.513672 -24.832716 -39.511763 8.389571 31.285396 86.849638 27.716862 0.057535 -18.705806 -1.667396 -0.003537 0.553354 0.002241 -14.685289 -51.833525 11.430172 178.523296 80.826764 172.783939 -2.623231 -18.212247 4.818336 -0.034031 -0.506161 -0.008618
-10.307667 55.913139 22.816716 -173.610859 -24.797891 -9.716527 -1.722317 11.436558 4.753011 -0.988411 6.542710 2.333118 -1.223034 8.182829 2.895318 -0.993885 6.532608 2.325125 3.567778 24.999278 -0.878496 4.083098 1.428347 -1.757455 0.727287 1.527970 -2.393132 -13.051106 -7.355756 3.750416 56.285921 -83.606791 -38.980276 12.840900 -12.384500 -16.686247 -9.558556 1.919104 -3.747222 5.669533 0.647325 -0.924237 -111.062248 -73.647038 116.144205 17.115280 -24.428534 2.520055 -24.832415 -39.493276 8.402984 31.423648 86.832085 27.861638 0.049324 -18.695152 -1.681792 -0.001453 0.551427 0.002636 -14.636720 -51.820229 11.436691 178.602146 80.829109 172.869070 -2.631995 -18.214314 4.838350 -0.037996 -0.505199 -0.004701
-10.307333 55.913328 22.822753 -173.617233 -24.805118 -9.718945 -1.728158 11.441315 4.750614 -0.985780 6.543834 2.333241 -1.221962 8.192435 2.899899 -0.988659 6.534391 2.325652 3.557542 24.955686 -0.862711 4.085296 1.410733 -1.763690 0.733872 1.522701 -2.396497 -13.067200 -7.341003 3.779719 56.546262 -83.659433 -39.232176 12.821331 -12.410351 -16.708215 -9.554970 1.920615 -3.752823 5.681800 0.638282 -0.923184 -111.208581 -73.653942 116.275523 17.108599 -24.370644 2.508221 -24.830007 -39.488293 8.404084 31.535912 86.818837 27.981629 0.045246 -18.684971 -1.689075 -0.000330 0.551167 0.000355 -14.609274 -51.814605 11.447933 178.686244 80.833825 172.941054 -2.645077 -18.210351 4.866093 -0.039578 -0.506146 -0.004588
-10.306486 55.913120 22.829236 -173.624114 -24.811696 -9.722571 -1.727786 11.446708 4.753387 -0.996490 6.549627 2.332343 -1.213156 8.196694 2.902696 -0.989402 6.538988 2.328004 3.556802 24.924865 -0.857828 4.082278 1.372432 -1.757101 0.746140 1.513303 -2.402859 -13.074594 -7.333788 3.793167 56.659730 -83.689379 -39.342788 12.774809 -12.463641 -16.726731 -9.546487 1.916356 -3.761380 5.687603 0.629472 -0.920118 -111.455313 -73.668493 116.497846 17.060977 -24.306461 2.532333 -24.834225 -39.483067 8.416115 31.487518 86.811198 27.931977 0.046355 -18.674378 -1.690876 -0.001272 0.551175 -0.002394 -14.581711 -51.811281 11.452097 178.742616 80.837652 172.996035 -2.654974 -18.206665 4.881710 -0.037729 -0.506670 -0.002316
-10.305410 55.912690 22.835434 -173.630462 -24.819722 -9.725753 -1.726191 11.452215 4.755173 -0.993999 6.553557 2.334834 -1.217073 8.200927 2.903607 -0.989721 6.546697 2.330520 3.553234 24.890616 -0.850202 4.082624 1.349440 -1.755033 0.755305 1.501985 -2.407761 -13.078313 -7.324354 3.804370 56.758130 -83.723088 -39.442153 12.734980 -12.507997 -16.734704 -9.539687 1.906138 -3.767339 5.707343 0.630982 -0.916705 -111.586556 -73.669682 116.602186 17.032228 -24.246953 2.570115 -24.842845 -39.477762 8.425004 31.522822 86.803647 27.968518 0.047373 -18.660745 -1.696053 -0.001359 0.548095 -0.006860 -14.560860 -51.805356 11.462171 178.850882 80.841977 173.095730 -2.658594 -18.203656 4.899755 -0.033664 -0.508703 -0.003894
-10.303772 55.912261 22.840885 -173.631000 -24.829121 -9.732306 -1.727972 11.458364 4.757012 -0.998476 6.559226 2.336627 -1.210229 8.201159 2.904794 -1.000329 6.556152 2.334575 3.553271 24.855985 -0.843737 4.089505 1.359401 -1.765017 0.762345 1.486513 -2.414196 -13.066637 -7.302778 3.825192 56.980354 -83.790086 -39.670015 12.735035 -12.505067 -16.727756 -9.524586 1.889260 -3.772756 5.726126 0.637931 -0.916207 -111.716064 -73.669701 116.697532 16.972669 -24.179669 2.644242 -24.846724 -39.469461 8.428527 31.537863 86.795981 27.992299 0.047292 -18.650367 -1.705827 -0.000789 0.546785 -0.006719 -14.551319 -51.797096 11.477051 178.920219 80.844808 173.154235 -2.668682 -18.200098 4.919563 -0.033536 -0.509760 -0.005219
-10.302056 55.912600 22.844073 -173.619797 -24.847694 -9.742442 -1.732991 11.475101 4.758480 -1.003402 6.563902 2.339133 -1.212695 8.205827 2.905078 -1.002199 6.559987 2.334698 3.552233 24.827806 -0.836650 4.084555 1.311521 -1.746877 0.769754 1.479305 -2.418025 -13.065558 -7.287714 3.847265 57.243350 -83.842643 -39.936879 12.744056 -12.488677 -16.714102 -9.508728 1.871707 -3.784116 5.736122 0.640838 -0.907927 -111.780419 -73.669144 116.733605 16.901856 -24.113834 2.732621 -24.851496 -39.448952 8.419934 31.597027 86.786421 28.063943 0.047448 -18.644763 -1.719453 0.000443 0.546316 -0.004880 -14.554375 -51.776715 11.486067 178.997214 80.846916 173.219957 -2.669425 -18.197969 4.933641 -0.035003 -0.510652 -0.007121
-10.300230 55.912082 22.848617 -173.614251 -24.853055 -9.746217 -1.733716 11.478937 4.757372 -1.008635 6.566309 2.337677 -1.215108 8.211868 2.905240 -1.004171 6.564748 2.334873 3.546074 24.789809 -0.826670 4.055558 1.212062 -1.706863 0.779434 1.469484 -2.417116 -13.079636 -7.274369 3.864695 57.872747 -83.907147 -40.571706 12.739363 -12.419330 -16.675280 -9.498076 1.860900 -3.782564 5.734173 0.635847 -0.927666 -111.763063 -73.650706 116.709030 16.816203 -24.039599 2.851998 -24.855727 -39.444816 8.419904 31.568423 86.783361 28.042945 0.048506 -18.640123 -1.729387 0.000350 0.547123 -0.002635 -14.544599 -51.772308 11.495486 179.134519 80.851731 173.344028 -2.672073 -18.193197 4.957116 -0.035522 -0.511516 -0.008295
